<?xml version="1.0" encoding="utf-8"?>
<Project name="My Movie" themeId="0" version="65540" templateID="SimpleProjectTemplate">
  <MediaItems>
    <MediaItem id="1" filePath="C:\Users\sg0224785\Videos\2018-03-14 14-14-32.mp4" arWidth="1280" arHeight="720" duration="541.35002259999999" songTitle="" songArtist="" songAlbum="" songCopyrightUrl="" songArtistUrl="" songAudioFileUrl="" stabilizationMode="0" mediaItemType="1" />
    <MediaItem id="2" filePath="C:\Users\sg0224785\Videos\2018-03-14 17-32-53.mp4" arWidth="1280" arHeight="720" duration="147.19999999999999" songTitle="" songArtist="" songAlbum="" songCopyrightUrl="" songArtistUrl="" songAudioFileUrl="" stabilizationMode="0" mediaItemType="1" />
  </MediaItems>
  <Extents>
    <VideoClip extentID="18" gapBefore="0" mediaItemID="1" inTime="71.866666666666674" outTime="73.233333333333334" speed="1" stabilizationMode="0">
      <Effects />
      <Transitions />
      <BoundProperties>
        <BoundPropertyBool Name="Mute" Value="false" />
        <BoundPropertyInt Name="rotateStepNinety" Value="0" />
        <BoundPropertyFloat Name="Volume" Value="1" />
      </BoundProperties>
    </VideoClip>
    <VideoClip extentID="35" gapBefore="0" mediaItemID="1" inTime="418.10000000000002" outTime="433.56666666666666" speed="1" stabilizationMode="0">
      <Effects />
      <Transitions />
      <BoundProperties>
        <BoundPropertyBool Name="Mute" Value="false" />
        <BoundPropertyInt Name="rotateStepNinety" Value="0" />
        <BoundPropertyFloat Name="Volume" Value="1" />
      </BoundProperties>
    </VideoClip>
    <VideoClip extentID="20" gapBefore="0" mediaItemID="1" inTime="181.40000000000003" outTime="204.60000000000002" speed="1" stabilizationMode="0">
      <Effects />
      <Transitions />
      <BoundProperties>
        <BoundPropertyBool Name="Mute" Value="false" />
        <BoundPropertyInt Name="rotateStepNinety" Value="0" />
        <BoundPropertyFloat Name="Volume" Value="1" />
      </BoundProperties>
    </VideoClip>
    <VideoClip extentID="37" gapBefore="0" mediaItemID="1" inTime="441.83333333333337" outTime="453.86666666666673" speed="1" stabilizationMode="0">
      <Effects />
      <Transitions />
      <BoundProperties>
        <BoundPropertyBool Name="Mute" Value="false" />
        <BoundPropertyInt Name="rotateStepNinety" Value="0" />
        <BoundPropertyFloat Name="Volume" Value="1" />
      </BoundProperties>
    </VideoClip>
    <VideoClip extentID="22" gapBefore="0" mediaItemID="1" inTime="205.23333333333338" outTime="224.93333333333337" speed="1" stabilizationMode="0">
      <Effects />
      <Transitions />
      <BoundProperties>
        <BoundPropertyBool Name="Mute" Value="false" />
        <BoundPropertyInt Name="rotateStepNinety" Value="0" />
        <BoundPropertyFloat Name="Volume" Value="1" />
      </BoundProperties>
    </VideoClip>
    <VideoClip extentID="39" gapBefore="0" mediaItemID="1" inTime="456.93333333333339" outTime="460.13333333333338" speed="1" stabilizationMode="0">
      <Effects />
      <Transitions />
      <BoundProperties>
        <BoundPropertyBool Name="Mute" Value="false" />
        <BoundPropertyInt Name="rotateStepNinety" Value="0" />
        <BoundPropertyFloat Name="Volume" Value="1" />
      </BoundProperties>
    </VideoClip>
    <VideoClip extentID="7" gapBefore="0" mediaItemID="1" inTime="535.16666666666663" outTime="0" speed="1" stabilizationMode="0">
      <Effects />
      <Transitions />
      <BoundProperties>
        <BoundPropertyBool Name="Mute" Value="false" />
        <BoundPropertyInt Name="rotateStepNinety" Value="0" />
        <BoundPropertyFloat Name="Volume" Value="1" />
      </BoundProperties>
    </VideoClip>
    <VideoClip extentID="24" gapBefore="0" mediaItemID="1" inTime="204.60000000000002" outTime="204.73333333333338" speed="1" stabilizationMode="0">
      <Effects />
      <Transitions />
      <BoundProperties>
        <BoundPropertyBool Name="Mute" Value="false" />
        <BoundPropertyInt Name="rotateStepNinety" Value="0" />
        <BoundPropertyFloat Name="Volume" Value="1" />
      </BoundProperties>
    </VideoClip>
    <VideoClip extentID="42" gapBefore="0" mediaItemID="1" inTime="504.76666666666677" outTime="522.00000000000011" speed="1" stabilizationMode="0">
      <Effects />
      <Transitions />
      <BoundProperties>
        <BoundPropertyBool Name="Mute" Value="false" />
        <BoundPropertyInt Name="rotateStepNinety" Value="0" />
        <BoundPropertyFloat Name="Volume" Value="1" />
      </BoundProperties>
    </VideoClip>
    <VideoClip extentID="10" gapBefore="0" mediaItemID="1" inTime="16.833333333333336" outTime="31.033333333333339" speed="1" stabilizationMode="0">
      <Effects />
      <Transitions />
      <BoundProperties>
        <BoundPropertyBool Name="Mute" Value="false" />
        <BoundPropertyInt Name="rotateStepNinety" Value="0" />
        <BoundPropertyFloat Name="Volume" Value="1" />
      </BoundProperties>
    </VideoClip>
    <VideoClip extentID="27" gapBefore="0" mediaItemID="1" inTime="229.10000000000002" outTime="251.90000000000003" speed="1" stabilizationMode="0">
      <Effects />
      <Transitions />
      <BoundProperties>
        <BoundPropertyBool Name="Mute" Value="false" />
        <BoundPropertyInt Name="rotateStepNinety" Value="0" />
        <BoundPropertyFloat Name="Volume" Value="1" />
      </BoundProperties>
    </VideoClip>
    <VideoClip extentID="44" gapBefore="0" mediaItemID="1" inTime="523.4666666666667" outTime="526.43333333333339" speed="1" stabilizationMode="0">
      <Effects />
      <Transitions />
      <BoundProperties>
        <BoundPropertyBool Name="Mute" Value="false" />
        <BoundPropertyInt Name="rotateStepNinety" Value="0" />
        <BoundPropertyFloat Name="Volume" Value="1" />
      </BoundProperties>
    </VideoClip>
    <VideoClip extentID="12" gapBefore="0" mediaItemID="1" inTime="31.766666666666669" outTime="62.099999999999994" speed="1" stabilizationMode="0">
      <Effects />
      <Transitions />
      <BoundProperties>
        <BoundPropertyBool Name="Mute" Value="false" />
        <BoundPropertyInt Name="rotateStepNinety" Value="0" />
        <BoundPropertyFloat Name="Volume" Value="1" />
      </BoundProperties>
    </VideoClip>
    <VideoClip extentID="29" gapBefore="0" mediaItemID="1" inTime="308.06666666666672" outTime="317.40000000000009" speed="1" stabilizationMode="0">
      <Effects />
      <Transitions />
      <BoundProperties>
        <BoundPropertyBool Name="Mute" Value="false" />
        <BoundPropertyInt Name="rotateStepNinety" Value="0" />
        <BoundPropertyFloat Name="Volume" Value="1" />
      </BoundProperties>
    </VideoClip>
    <VideoClip extentID="46" gapBefore="0" mediaItemID="1" inTime="528.23333333333335" outTime="531.26666666666665" speed="1" stabilizationMode="0">
      <Effects />
      <Transitions />
      <BoundProperties>
        <BoundPropertyBool Name="Mute" Value="false" />
        <BoundPropertyInt Name="rotateStepNinety" Value="0" />
        <BoundPropertyFloat Name="Volume" Value="1" />
      </BoundProperties>
    </VideoClip>
    <VideoClip extentID="14" gapBefore="0" mediaItemID="1" inTime="62.633333333333326" outTime="66.73333333333332" speed="1" stabilizationMode="0">
      <Effects />
      <Transitions />
      <BoundProperties>
        <BoundPropertyBool Name="Mute" Value="false" />
        <BoundPropertyInt Name="rotateStepNinety" Value="0" />
        <BoundPropertyFloat Name="Volume" Value="1" />
      </BoundProperties>
    </VideoClip>
    <VideoClip extentID="31" gapBefore="0" mediaItemID="1" inTime="322.4666666666667" outTime="358" speed="1" stabilizationMode="0">
      <Effects />
      <Transitions />
      <BoundProperties>
        <BoundPropertyBool Name="Mute" Value="false" />
        <BoundPropertyInt Name="rotateStepNinety" Value="0" />
        <BoundPropertyFloat Name="Volume" Value="1" />
      </BoundProperties>
    </VideoClip>
    <VideoClip extentID="48" gapBefore="0" mediaItemID="1" inTime="535.16666666666663" outTime="0" speed="1" stabilizationMode="0">
      <Effects />
      <Transitions />
      <BoundProperties>
        <BoundPropertyBool Name="Mute" Value="false" />
        <BoundPropertyInt Name="rotateStepNinety" Value="0" />
        <BoundPropertyFloat Name="Volume" Value="1" />
      </BoundProperties>
    </VideoClip>
    <VideoClip extentID="15" gapBefore="0" mediaItemID="1" inTime="535.16666666666663" outTime="0" speed="1" stabilizationMode="0">
      <Effects />
      <Transitions />
      <BoundProperties>
        <BoundPropertyBool Name="Mute" Value="false" />
        <BoundPropertyInt Name="rotateStepNinety" Value="0" />
        <BoundPropertyFloat Name="Volume" Value="1" />
      </BoundProperties>
    </VideoClip>
    <VideoClip extentID="16" gapBefore="0" mediaItemID="1" inTime="67.133333333333326" outTime="71.266666666666666" speed="1" stabilizationMode="0">
      <Effects />
      <Transitions />
      <BoundProperties>
        <BoundPropertyBool Name="Mute" Value="false" />
        <BoundPropertyInt Name="rotateStepNinety" Value="0" />
        <BoundPropertyFloat Name="Volume" Value="1" />
      </BoundProperties>
    </VideoClip>
    <ExtentSelector extentID="1" gapBefore="0" primaryTrack="true">
      <Effects />
      <Transitions />
      <BoundProperties />
      <ExtentRefs>
        <ExtentRef id="10" />
        <ExtentRef id="12" />
        <ExtentRef id="14" />
        <ExtentRef id="16" />
        <ExtentRef id="18" />
        <ExtentRef id="20" />
        <ExtentRef id="24" />
        <ExtentRef id="22" />
        <ExtentRef id="27" />
        <ExtentRef id="29" />
        <ExtentRef id="31" />
        <ExtentRef id="35" />
        <ExtentRef id="37" />
        <ExtentRef id="39" />
        <ExtentRef id="42" />
        <ExtentRef id="44" />
        <ExtentRef id="46" />
        <ExtentRef id="48" />
      </ExtentRefs>
    </ExtentSelector>
    <ExtentSelector extentID="2" gapBefore="0" primaryTrack="false">
      <Effects />
      <Transitions />
      <BoundProperties />
      <ExtentRefs />
    </ExtentSelector>
    <ExtentSelector extentID="3" gapBefore="0" primaryTrack="false">
      <Effects />
      <Transitions />
      <BoundProperties />
      <ExtentRefs />
    </ExtentSelector>
    <ExtentSelector extentID="4" gapBefore="0" primaryTrack="false">
      <Effects />
      <Transitions />
      <BoundProperties />
      <ExtentRefs />
    </ExtentSelector>
  </Extents>
  <BoundPlaceholders>
    <BoundPlaceholder placeholderID="SingleExtentView" extentID="0" />
    <BoundPlaceholder placeholderID="Main" extentID="1" />
    <BoundPlaceholder placeholderID="SoundTrack" extentID="2" />
    <BoundPlaceholder placeholderID="Text" extentID="4" />
    <BoundPlaceholder placeholderID="Narration" extentID="3" />
  </BoundPlaceholders>
  <BoundProperties>
    <BoundPropertyFloatSet Name="AspectRatio">
      <BoundPropertyFloatElement Value="1.7777776718139648" />
    </BoundPropertyFloatSet>
    <BoundPropertyFloat Name="DuckedNarrationAndSoundTrackMix" Value="0.5" />
    <BoundPropertyFloat Name="DuckedVideoAndNarrationMix" Value="0" />
    <BoundPropertyFloat Name="DuckedVideoAndSoundTrackMix" Value="0" />
    <BoundPropertyFloat Name="SoundTrackMix" Value="0" />
  </BoundProperties>
  <ThemeOperationLog themeID="0">
    <MonolithicThemeOperations />
  </ThemeOperationLog>
  <AudioDuckingProperties emphasisPlaceholderID="Narration" />
</Project>