<?xml version="1.0" encoding="utf-8"?>
<Project name="My Movie333-bkipwlmp" themeId="0" version="65540" templateID="SimpleProjectTemplate">
  <MediaItems>
    <MediaItem id="1" filePath="C:\Users\sg0224785\Videos\2018-03-14 14-14-32.mp4" arWidth="1280" arHeight="720" duration="541.35002259999999" songTitle="" songArtist="" songAlbum="" songCopyrightUrl="" songArtistUrl="" songAudioFileUrl="" stabilizationMode="0" mediaItemType="1" />
    <MediaItem id="2" filePath="C:\Users\sg0224785\Videos\2018-03-14 17-32-53.mp4" arWidth="1280" arHeight="720" duration="147.21451239999999" songTitle="" songArtist="" songAlbum="" songCopyrightUrl="" songArtistUrl="" songAudioFileUrl="" stabilizationMode="0" mediaItemType="1" />
  </MediaItems>
  <Extents>
    <VideoClip extentID="34" gapBefore="0" mediaItemID="2" inTime="10.866666666666703" outTime="15.766666666666765" speed="1" stabilizationMode="0">
      <Effects />
      <Transitions />
      <BoundProperties>
        <BoundPropertyBool Name="Mute" Value="false" />
        <BoundPropertyInt Name="rotateStepNinety" Value="0" />
        <BoundPropertyFloat Name="Volume" Value="1" />
      </BoundProperties>
    </VideoClip>
    <VideoClip extentID="18" gapBefore="0" mediaItemID="1" inTime="322.36666666666667" outTime="358.60000000000002" speed="1" stabilizationMode="0">
      <Effects />
      <Transitions />
      <BoundProperties>
        <BoundPropertyBool Name="Mute" Value="false" />
        <BoundPropertyInt Name="rotateStepNinety" Value="0" />
        <BoundPropertyFloat Name="Volume" Value="1" />
      </BoundProperties>
    </VideoClip>
    <VideoClip extentID="36" gapBefore="0" mediaItemID="2" inTime="23.10000000000008" outTime="25.566666666666748" speed="1" stabilizationMode="0">
      <Effects />
      <Transitions />
      <BoundProperties>
        <BoundPropertyBool Name="Mute" Value="false" />
        <BoundPropertyInt Name="rotateStepNinety" Value="0" />
        <BoundPropertyFloat Name="Volume" Value="1" />
      </BoundProperties>
    </VideoClip>
    <VideoClip extentID="20" gapBefore="0" mediaItemID="1" inTime="417.9666666666667" outTime="433.80000000000001" speed="1" stabilizationMode="0">
      <Effects />
      <Transitions />
      <BoundProperties>
        <BoundPropertyBool Name="Mute" Value="false" />
        <BoundPropertyInt Name="rotateStepNinety" Value="0" />
        <BoundPropertyFloat Name="Volume" Value="1" />
      </BoundProperties>
    </VideoClip>
    <VideoClip extentID="38" gapBefore="0" mediaItemID="2" inTime="38.766666666666737" outTime="45.700000000000045" speed="1" stabilizationMode="0">
      <Effects />
      <Transitions />
      <BoundProperties>
        <BoundPropertyBool Name="Mute" Value="false" />
        <BoundPropertyInt Name="rotateStepNinety" Value="0" />
        <BoundPropertyFloat Name="Volume" Value="1" />
      </BoundProperties>
    </VideoClip>
    <VideoClip extentID="22" gapBefore="0" mediaItemID="1" inTime="441.5" outTime="454.06666666666666" speed="1" stabilizationMode="0">
      <Effects />
      <Transitions />
      <BoundProperties>
        <BoundPropertyBool Name="Mute" Value="false" />
        <BoundPropertyInt Name="rotateStepNinety" Value="0" />
        <BoundPropertyFloat Name="Volume" Value="1" />
      </BoundProperties>
    </VideoClip>
    <VideoClip extentID="40" gapBefore="0" mediaItemID="2" inTime="48.033333333333388" outTime="97.500000000000057" speed="1" stabilizationMode="0">
      <Effects />
      <Transitions />
      <BoundProperties>
        <BoundPropertyBool Name="Mute" Value="false" />
        <BoundPropertyInt Name="rotateStepNinety" Value="0" />
        <BoundPropertyFloat Name="Volume" Value="1" />
      </BoundProperties>
    </VideoClip>
    <VideoClip extentID="6" gapBefore="0" mediaItemID="1" inTime="16.766666666666666" outTime="73.099999999999994" speed="1" stabilizationMode="0">
      <Effects />
      <Transitions />
      <BoundProperties>
        <BoundPropertyBool Name="Mute" Value="false" />
        <BoundPropertyInt Name="rotateStepNinety" Value="0" />
        <BoundPropertyFloat Name="Volume" Value="1" />
      </BoundProperties>
    </VideoClip>
    <VideoClip extentID="24" gapBefore="0" mediaItemID="1" inTime="456.89999999999998" outTime="460.56666666666661" speed="1" stabilizationMode="0">
      <Effects />
      <Transitions />
      <BoundProperties>
        <BoundPropertyBool Name="Mute" Value="false" />
        <BoundPropertyInt Name="rotateStepNinety" Value="0" />
        <BoundPropertyFloat Name="Volume" Value="1" />
      </BoundProperties>
    </VideoClip>
    <VideoClip extentID="42" gapBefore="0" mediaItemID="2" inTime="110.10000000000008" outTime="127.73333333333341" speed="1" stabilizationMode="0">
      <Effects />
      <Transitions />
      <BoundProperties>
        <BoundPropertyBool Name="Mute" Value="false" />
        <BoundPropertyInt Name="rotateStepNinety" Value="0" />
        <BoundPropertyFloat Name="Volume" Value="1" />
      </BoundProperties>
    </VideoClip>
    <VideoClip extentID="8" gapBefore="0" mediaItemID="1" inTime="183.9666666666667" outTime="203.9666666666667" speed="1" stabilizationMode="0">
      <Effects />
      <Transitions />
      <BoundProperties>
        <BoundPropertyBool Name="Mute" Value="false" />
        <BoundPropertyInt Name="rotateStepNinety" Value="0" />
        <BoundPropertyFloat Name="Volume" Value="1" />
      </BoundProperties>
    </VideoClip>
    <VideoClip extentID="26" gapBefore="0" mediaItemID="1" inTime="504.73333333333335" outTime="521.86666666666679" speed="1" stabilizationMode="0">
      <Effects />
      <Transitions />
      <BoundProperties>
        <BoundPropertyBool Name="Mute" Value="false" />
        <BoundPropertyInt Name="rotateStepNinety" Value="0" />
        <BoundPropertyFloat Name="Volume" Value="1" />
      </BoundProperties>
    </VideoClip>
    <VideoClip extentID="9" gapBefore="0" mediaItemID="1" inTime="203.9666666666667" outTime="204.80000000000004" speed="1" stabilizationMode="0">
      <Effects />
      <Transitions />
      <BoundProperties>
        <BoundPropertyBool Name="Mute" Value="false" />
        <BoundPropertyInt Name="rotateStepNinety" Value="0" />
        <BoundPropertyFloat Name="Volume" Value="1" />
      </BoundProperties>
    </VideoClip>
    <VideoClip extentID="44" gapBefore="0" mediaItemID="2" inTime="136.36666666666673" outTime="142.50000000000006" speed="1" stabilizationMode="0">
      <Effects />
      <Transitions />
      <BoundProperties>
        <BoundPropertyBool Name="Mute" Value="false" />
        <BoundPropertyInt Name="rotateStepNinety" Value="0" />
        <BoundPropertyFloat Name="Volume" Value="1" />
      </BoundProperties>
    </VideoClip>
    <VideoClip extentID="28" gapBefore="0" mediaItemID="1" inTime="523.56666666666672" outTime="531.16666666666663" speed="1" stabilizationMode="0">
      <Effects />
      <Transitions />
      <BoundProperties>
        <BoundPropertyBool Name="Mute" Value="false" />
        <BoundPropertyInt Name="rotateStepNinety" Value="0" />
        <BoundPropertyFloat Name="Volume" Value="1" />
      </BoundProperties>
    </VideoClip>
    <VideoClip extentID="11" gapBefore="0" mediaItemID="1" inTime="205.26666666666671" outTime="223.70000000000005" speed="1" stabilizationMode="0">
      <Effects />
      <Transitions />
      <BoundProperties>
        <BoundPropertyBool Name="Mute" Value="false" />
        <BoundPropertyInt Name="rotateStepNinety" Value="0" />
        <BoundPropertyFloat Name="Volume" Value="1" />
      </BoundProperties>
    </VideoClip>
    <VideoClip extentID="13" gapBefore="0" mediaItemID="1" inTime="228.10000000000002" outTime="252.23333333333335" speed="1" stabilizationMode="0">
      <Effects />
      <Transitions />
      <BoundProperties>
        <BoundPropertyBool Name="Mute" Value="false" />
        <BoundPropertyInt Name="rotateStepNinety" Value="0" />
        <BoundPropertyFloat Name="Volume" Value="1" />
      </BoundProperties>
    </VideoClip>
    <VideoClip extentID="32" gapBefore="0" mediaItemID="1" inTime="534.89999999999998" outTime="536.16666666666663" speed="1" stabilizationMode="0">
      <Effects />
      <Transitions />
      <BoundProperties>
        <BoundPropertyBool Name="Mute" Value="false" />
        <BoundPropertyInt Name="rotateStepNinety" Value="0" />
        <BoundPropertyFloat Name="Volume" Value="1" />
      </BoundProperties>
    </VideoClip>
    <VideoClip extentID="16" gapBefore="0" mediaItemID="1" inTime="307.86666666666667" outTime="317.13333333333333" speed="1" stabilizationMode="0">
      <Effects />
      <Transitions />
      <BoundProperties>
        <BoundPropertyBool Name="Mute" Value="false" />
        <BoundPropertyInt Name="rotateStepNinety" Value="0" />
        <BoundPropertyFloat Name="Volume" Value="1" />
      </BoundProperties>
    </VideoClip>
    <ExtentSelector extentID="1" gapBefore="0" primaryTrack="true">
      <Effects />
      <Transitions />
      <BoundProperties />
      <ExtentRefs>
        <ExtentRef id="6" />
        <ExtentRef id="8" />
        <ExtentRef id="9" />
        <ExtentRef id="11" />
        <ExtentRef id="13" />
        <ExtentRef id="16" />
        <ExtentRef id="18" />
        <ExtentRef id="20" />
        <ExtentRef id="22" />
        <ExtentRef id="24" />
        <ExtentRef id="34" />
        <ExtentRef id="36" />
        <ExtentRef id="38" />
        <ExtentRef id="40" />
        <ExtentRef id="42" />
        <ExtentRef id="44" />
        <ExtentRef id="26" />
        <ExtentRef id="28" />
        <ExtentRef id="32" />
      </ExtentRefs>
    </ExtentSelector>
    <ExtentSelector extentID="2" gapBefore="0" primaryTrack="false">
      <Effects />
      <Transitions />
      <BoundProperties />
      <ExtentRefs />
    </ExtentSelector>
    <ExtentSelector extentID="3" gapBefore="0" primaryTrack="false">
      <Effects />
      <Transitions />
      <BoundProperties />
      <ExtentRefs />
    </ExtentSelector>
    <ExtentSelector extentID="4" gapBefore="0" primaryTrack="false">
      <Effects />
      <Transitions />
      <BoundProperties />
      <ExtentRefs />
    </ExtentSelector>
  </Extents>
  <BoundPlaceholders>
    <BoundPlaceholder placeholderID="SingleExtentView" extentID="0" />
    <BoundPlaceholder placeholderID="Main" extentID="1" />
    <BoundPlaceholder placeholderID="SoundTrack" extentID="2" />
    <BoundPlaceholder placeholderID="Text" extentID="4" />
    <BoundPlaceholder placeholderID="Narration" extentID="3" />
  </BoundPlaceholders>
  <BoundProperties>
    <BoundPropertyFloatSet Name="AspectRatio">
      <BoundPropertyFloatElement Value="1.7777776718139648" />
    </BoundPropertyFloatSet>
    <BoundPropertyFloat Name="DuckedNarrationAndSoundTrackMix" Value="0.5" />
    <BoundPropertyFloat Name="DuckedVideoAndNarrationMix" Value="0" />
    <BoundPropertyFloat Name="DuckedVideoAndSoundTrackMix" Value="0" />
    <BoundPropertyFloat Name="SoundTrackMix" Value="0" />
  </BoundProperties>
  <ThemeOperationLog themeID="0">
    <MonolithicThemeOperations />
  </ThemeOperationLog>
  <AudioDuckingProperties emphasisPlaceholderID="Narration" />
</Project>